G75*
%MOIN*%
%OFA0B0*%
%FSLAX25Y25*%
%IPPOS*%
%LPD*%
%AMOC8*
5,1,8,0,0,1.08239X$1,22.5*
%
%ADD10C,0.10500*%
%ADD11C,0.06500*%
%ADD12C,0.07900*%
%ADD13C,0.06996*%
%ADD14C,0.07500*%
%ADD15R,0.05500X0.08374*%
%ADD16R,0.07587X0.07469*%
%ADD17C,0.03200*%
D10*
X0015500Y0016500D03*
X0095500Y0016500D03*
X0095500Y0186500D03*
X0015500Y0186500D03*
D11*
X0027500Y0189500D03*
X0037500Y0189500D03*
X0047500Y0189500D03*
X0042500Y0169500D03*
X0032500Y0169500D03*
X0063500Y0189500D03*
X0073500Y0189500D03*
X0083500Y0189500D03*
X0078500Y0169500D03*
X0068500Y0169500D03*
D12*
X0100500Y0171500D03*
X0100500Y0161500D03*
X0100500Y0151500D03*
X0100500Y0141500D03*
X0100500Y0131500D03*
X0100500Y0121500D03*
X0100500Y0111500D03*
X0100500Y0101500D03*
X0100500Y0091500D03*
X0100500Y0081500D03*
X0100500Y0071500D03*
X0100500Y0061500D03*
X0100500Y0051500D03*
X0100500Y0041500D03*
X0100500Y0031500D03*
X0010500Y0031500D03*
X0010500Y0041500D03*
X0010500Y0051500D03*
X0010500Y0061500D03*
X0010500Y0071500D03*
X0010500Y0081500D03*
X0010500Y0091500D03*
X0010500Y0101500D03*
X0010500Y0111500D03*
X0010500Y0121500D03*
X0010500Y0131500D03*
X0010500Y0141500D03*
X0010500Y0151500D03*
X0010500Y0161500D03*
X0010500Y0171500D03*
D13*
X0020500Y0101500D03*
X0020500Y0071500D03*
X0020500Y0061500D03*
X0020500Y0031500D03*
X0060500Y0031500D03*
X0060500Y0071500D03*
X0090500Y0071500D03*
X0090500Y0061500D03*
X0090500Y0031500D03*
X0090500Y0101500D03*
D14*
X0078500Y0159500D03*
X0068500Y0159500D03*
X0063500Y0179500D03*
X0073500Y0179500D03*
X0083500Y0179500D03*
X0047500Y0179500D03*
X0037500Y0179500D03*
X0027500Y0179500D03*
X0032500Y0159500D03*
X0042500Y0159500D03*
D15*
X0047224Y0148217D03*
X0037382Y0148217D03*
X0027539Y0148217D03*
X0027539Y0112783D03*
X0037382Y0112783D03*
X0047224Y0112783D03*
X0063776Y0112783D03*
X0073618Y0112783D03*
X0083461Y0112783D03*
X0083461Y0148217D03*
X0073618Y0148217D03*
X0063776Y0148217D03*
D16*
X0061461Y0018500D03*
X0050539Y0018500D03*
X0034461Y0018500D03*
X0077539Y0018500D03*
D17*
X0072500Y0033500D03*
X0080500Y0053500D03*
X0086500Y0044500D03*
X0069500Y0078500D03*
X0076500Y0098500D03*
X0077500Y0120500D03*
X0073500Y0130500D03*
X0063500Y0128500D03*
X0045500Y0139500D03*
X0037500Y0119500D03*
X0044500Y0103500D03*
X0047500Y0073500D03*
X0058500Y0044500D03*
X0028500Y0035500D03*
X0021500Y0047500D03*
X0020500Y0081500D03*
X0029500Y0139500D03*
X0024500Y0154500D03*
X0083500Y0133500D03*
X0086500Y0155500D03*
M02*
