%
M48
M72
T01C0.0130
T02C0.0400
T03C0.0433
T04C0.0600
T05C0.1000
%
T01
X2150Y4750
X2850Y3550
X4750Y7350
X4450Y10350
X3750Y11950
X2950Y13950
X2450Y15450
X4550Y13950
X6350Y12850
X7350Y13050
X7750Y12050
X8350Y13350
X8650Y15550
X7650Y9850
X6950Y7850
X8050Y5350
X8650Y4450
X7250Y3350
X5850Y4450
X2050Y8150
T02
X1050Y8150
X1050Y7150
X1050Y6150
X1050Y5150
X1050Y4150
X1050Y3150
X1050Y9150
X1050Y10150
X1050Y11150
X1050Y12150
X1050Y13150
X1050Y14150
X1050Y15150
X1050Y16150
X1050Y17150
X2750Y17950
X3750Y17950
X4750Y17950
X4250Y15950
X3250Y15950
X6350Y17950
X7350Y17950
X8350Y17950
X7850Y15950
X6850Y15950
X10050Y16150
X10050Y15150
X10050Y14150
X10050Y13150
X10050Y12150
X10050Y11150
X10050Y10150
X10050Y9150
X10050Y8150
X10050Y7150
X10050Y6150
X10050Y5150
X10050Y4150
X10050Y3150
X10050Y17150
T03
X9050Y10150
X9050Y7150
X9050Y6150
X9050Y3150
X6050Y3150
X6050Y7150
X2050Y7150
X2050Y6150
X2050Y3150
X2050Y10150
T04
X3250Y16950
X4250Y16950
X3750Y18950
X2750Y18950
X4750Y18950
X6350Y18950
X7350Y18950
X8350Y18950
X7850Y16950
X6850Y16950
T05
X1550Y1650
X9550Y1650
X9550Y18650
X1550Y18650
M30
