G75*
%MOIN*%
%OFA0B0*%
%FSLAX25Y25*%
%IPPOS*%
%LPD*%
%AMOC8*
5,1,8,0,0,1.08239X$1,22.5*
%
%ADD10C,0.10500*%
%ADD11C,0.06500*%
%ADD12C,0.07900*%
%ADD13R,0.06012X0.04437*%
%ADD14R,0.06406X0.05618*%
%ADD15R,0.05618X0.06406*%
%ADD16C,0.06996*%
%ADD17C,0.07500*%
%ADD18C,0.03200*%
D10*
X0015500Y0016500D03*
X0095500Y0016500D03*
X0095500Y0186500D03*
X0015500Y0186500D03*
D11*
X0027500Y0189500D03*
X0037500Y0189500D03*
X0047500Y0189500D03*
X0042500Y0169500D03*
X0032500Y0169500D03*
X0063500Y0189500D03*
X0073500Y0189500D03*
X0083500Y0189500D03*
X0078500Y0169500D03*
X0068500Y0169500D03*
D12*
X0100500Y0171500D03*
X0100500Y0161500D03*
X0100500Y0151500D03*
X0100500Y0141500D03*
X0100500Y0131500D03*
X0100500Y0121500D03*
X0100500Y0111500D03*
X0100500Y0101500D03*
X0100500Y0091500D03*
X0100500Y0081500D03*
X0100500Y0071500D03*
X0100500Y0061500D03*
X0100500Y0051500D03*
X0100500Y0041500D03*
X0100500Y0031500D03*
X0010500Y0031500D03*
X0010500Y0041500D03*
X0010500Y0051500D03*
X0010500Y0061500D03*
X0010500Y0071500D03*
X0010500Y0081500D03*
X0010500Y0091500D03*
X0010500Y0101500D03*
X0010500Y0111500D03*
X0010500Y0121500D03*
X0010500Y0131500D03*
X0010500Y0141500D03*
X0010500Y0151500D03*
X0010500Y0161500D03*
X0010500Y0171500D03*
D13*
X0041169Y0131240D03*
X0041169Y0123760D03*
X0049831Y0127500D03*
X0037831Y0095240D03*
X0037831Y0087760D03*
X0029169Y0091500D03*
X0038831Y0056240D03*
X0038831Y0048760D03*
X0030169Y0052500D03*
D14*
X0048500Y0048760D03*
X0048500Y0056240D03*
X0048500Y0087760D03*
X0048500Y0095240D03*
X0031500Y0123760D03*
X0031500Y0131240D03*
X0022500Y0131240D03*
X0022500Y0123760D03*
X0083500Y0126240D03*
X0083500Y0118760D03*
D15*
X0073240Y0137500D03*
X0075760Y0147500D03*
X0083240Y0147500D03*
X0065760Y0137500D03*
X0066240Y0095500D03*
X0058760Y0095500D03*
X0039240Y0073500D03*
X0031760Y0073500D03*
X0058760Y0056500D03*
X0066240Y0056500D03*
X0035240Y0147500D03*
X0027760Y0147500D03*
D16*
X0020500Y0101500D03*
X0020500Y0071500D03*
X0020500Y0061500D03*
X0020500Y0031500D03*
X0060500Y0031500D03*
X0060500Y0071500D03*
X0090500Y0071500D03*
X0090500Y0061500D03*
X0090500Y0031500D03*
X0090500Y0101500D03*
D17*
X0078500Y0159500D03*
X0068500Y0159500D03*
X0063500Y0179500D03*
X0073500Y0179500D03*
X0083500Y0179500D03*
X0047500Y0179500D03*
X0037500Y0179500D03*
X0027500Y0179500D03*
X0032500Y0159500D03*
X0042500Y0159500D03*
D18*
X0045500Y0139500D03*
X0037500Y0119500D03*
X0044500Y0103500D03*
X0047500Y0073500D03*
X0058500Y0044500D03*
X0072500Y0033500D03*
X0080500Y0053500D03*
X0086500Y0044500D03*
X0069500Y0078500D03*
X0076500Y0098500D03*
X0077500Y0120500D03*
X0073500Y0130500D03*
X0063500Y0128500D03*
X0083500Y0133500D03*
X0086500Y0155500D03*
X0029500Y0139500D03*
X0024500Y0154500D03*
X0020500Y0081500D03*
X0021500Y0047500D03*
X0028500Y0035500D03*
M02*
